<?xml version="1.0" standalone="no"?>
<!DOCTYPE svg PUBLIC "-//W3C//DTD SVG 20010904//EN"
 "http://www.w3.org/TR/2001/REC-SVG-20010904/DTD/svg10.dtd">
<svg version="1.0" xmlns="http://www.w3.org/2000/svg"
 width="300.000000pt" height="300.000000pt" viewBox="0 0 300.000000 300.000000"
 preserveAspectRatio="xMidYMid meet">
<metadata>
Created by potrace 1.14, written by Peter Selinger 2001-2017
</metadata>
<g transform="translate(0.000000,300.000000) scale(0.100000,-0.100000)"
fill="#000000" stroke="none">
<path d="M1480 2722 c-52 -7 -150 -44 -187 -71 -21 -16 -68 -58 -105 -94 l-67
-66 -114 -2 c-193 -2 -301 -54 -394 -189 -51 -74 -65 -131 -69 -268 l-4 -123
-75 -75 c-74 -75 -125 -148 -125 -178 0 -9 -4 -16 -8 -16 -10 0 -11 -1 -18
-116 -10 -143 25 -228 147 -356 43 -46 79 -87 79 -93 0 -5 2 -62 4 -125 2 -93
7 -125 26 -170 52 -122 134 -202 255 -247 59 -22 70 -23 187 -25 l107 -2 80
-77 c76 -73 181 -139 221 -139 9 0 20 -3 23 -7 12 -11 130 -9 187 3 84 19 136
51 230 140 l85 81 108 1 c159 2 246 33 335 119 73 71 112 141 126 223 3 14 5
27 6 30 1 3 2 50 2 105 l0 100 82 85 c118 123 156 214 150 358 -5 107 -49 196
-150 302 l-79 82 -1 97 c-2 156 -27 237 -101 329 -83 102 -195 149 -363 151
l-114 2 -82 79 c-83 79 -145 119 -220 139 -44 12 -125 18 -164 13z m225 -151
c35 -17 91 -57 134 -97 l74 -69 91 -2 c146 -2 213 -26 304 -108 37 -33 63 -69
88 -122 34 -70 37 -83 40 -185 l4 -110 60 -65 c72 -76 102 -122 125 -189 17
-47 27 -178 16 -199 -3 -5 -7 -19 -8 -30 -7 -45 -60 -129 -124 -197 -38 -40
-69 -77 -69 -83 -1 -5 -3 -53 -5 -105 -5 -149 -49 -246 -148 -326 -27 -21 -52
-39 -56 -39 -3 -1 -19 -8 -36 -17 -47 -24 -82 -30 -190 -34 l-100 -3 -70 -68
c-39 -37 -92 -79 -118 -92 -123 -60 -258 -59 -372 2 -46 25 -50 28 -126 104
l-57 55 -108 3 c-127 3 -181 20 -267 83 -59 44 -104 101 -131 167 -22 53 -28
93 -29 195 l0 85 -57 58 c-75 75 -116 134 -129 189 -1 4 -7 22 -12 40 -6 18
-10 58 -10 90 1 59 34 183 52 194 6 3 13 14 17 24 4 10 36 49 72 86 l65 67 2
96 c2 79 6 117 12 139 1 1 0 3 -1 5 -1 1 5 13 12 27 8 14 14 28 15 31 1 20 71
111 107 141 47 38 128 78 156 78 10 0 22 3 25 7 4 3 51 7 105 7 l97 1 68 65
c60 57 152 117 197 129 95 24 195 14 285 -28z"/>
<path d="M1445 2566 c-86 -21 -113 -38 -208 -133 l-62 -61 -110 -3 c-61 -1
-114 -5 -120 -8 -5 -3 -18 -7 -28 -8 -64 -10 -176 -107 -215 -186 -31 -63 -34
-76 -36 -199 l-2 -108 -64 -62 c-102 -102 -139 -175 -144 -283 -6 -118 34
-204 140 -309 l66 -64 2 -114 c3 -115 19 -185 56 -233 37 -49 112 -113 152
-129 23 -10 50 -21 58 -25 8 -4 67 -9 130 -10 l115 -3 65 -65 c36 -36 81 -76
101 -89 35 -22 124 -51 162 -53 9 -1 23 -2 30 -2 11 -1 33 2 102 17 53 11 108
47 185 121 l75 73 103 0 c56 0 104 -1 105 -2 2 -2 11 3 20 11 10 7 17 11 17 8
0 -3 23 5 52 18 99 46 184 156 203 261 4 21 7 77 7 124 l0 85 72 76 c93 96
128 166 134 264 7 123 -29 206 -142 323 l-61 64 -1 81 c-1 45 -5 102 -8 126
-11 64 -57 150 -108 197 -81 76 -152 101 -294 103 l-97 2 -79 74 c-75 70 -98
85 -174 115 -46 17 -141 20 -199 6z m110 -478 c4 -4 9 -55 11 -113 2 -81 0
-105 -10 -105 -8 0 -16 16 -19 36 -10 60 -45 120 -80 138 -41 21 -123 32 -209
28 l-67 -3 0 -159 -1 -159 27 -3 c48 -5 114 8 133 28 11 11 23 42 27 72 5 29
13 54 18 55 6 1 11 -63 12 -175 1 -142 -1 -178 -11 -178 -9 0 -15 19 -18 60
-6 86 -25 102 -117 105 l-71 2 1 -169 c0 -123 3 -168 12 -169 7 0 59 0 116 0
88 0 111 4 150 23 51 26 95 88 106 149 l7 36 -41 -2 c-29 -1 -41 2 -41 12 0
10 39 13 198 13 108 0 214 -5 234 -10 53 -15 94 -53 105 -97 25 -97 -13 -179
-97 -210 l-51 -19 59 -17 c69 -19 119 -57 139 -105 27 -64 9 -186 -34 -230 -7
-7 -34 -22 -60 -34 -44 -19 -67 -21 -270 -22 -172 -1 -223 2 -223 12 0 11 38
17 82 13 15 -2 16 20 17 229 0 172 -3 230 -12 231 -7 0 -146 1 -309 1 -243 1
-298 4 -298 15 0 7 3 12 8 12 4 -1 25 -1 48 0 l41 1 0 345 0 345 -48 0 c-34 0
-49 4 -49 13 0 10 59 13 289 12 159 0 292 -3 296 -7z"/>
<path d="M1709 1576 c-1 -6 -2 -73 -3 -148 -2 -156 -10 -142 87 -140 88 3 117
36 118 133 1 126 -29 162 -136 164 -40 1 -66 -2 -66 -9z"/>
<path d="M1707 1252 c-2 -4 -4 -86 -3 -182 l1 -175 91 1 c82 0 93 3 117 25 44
41 56 76 54 158 -4 135 -40 172 -171 176 -47 2 -88 0 -89 -3z"/>
</g>
</svg>
